<?xml version="1.0" encoding="UTF-8"?>
<svg xmlns="http://www.w3.org/2000/svg" id="Layer_1" data-name="Layer 1" viewBox="0 0 1000 1000">
  <defs>
    <style>.cls-1{fill:#151131;}</style>
  </defs>
  <title>logo</title>
  <g id="Page-1">
    <path id="Path" class="cls-1" d="M750.33,678.81a32.75,32.75,0,0,0-32,25.9l-123.62-5.89a36,36,0,0,0,.71-7.06A47.44,47.44,0,0,0,593.51,679l45-25.9a33.29,33.29,0,1,0-3.77-5.88l-43.56,25.19a45.52,45.52,0,0,0-84.06,34.61l-81,19.55a45.05,45.05,0,0,0-13-29.44l14.6-20.25a32.82,32.82,0,1,0-6.59-3.06l-13.42,18.6a46.33,46.33,0,0,0-33.2-8.71L360.65,604.4a45.44,45.44,0,1,0-31.08-84.53l-35.09-68.52a45.8,45.8,0,0,0,18.13-16.71l29.2,7.77a31.32,31.32,0,0,0-.47,4.71,33.19,33.19,0,0,0,29.9,33,33,33,0,1,0-27.78-44.5l-27.55-7.3A44.77,44.77,0,0,0,318,400l81.23-37.43a45.69,45.69,0,0,0,62.16,8.71,45.23,45.23,0,0,0,11.78-61.46L525,259.22a45.33,45.33,0,0,0,21,7.06v22.37a32.77,32.77,0,1,0,7.07,0V266.28a44.92,44.92,0,0,0,18.36-5.41l56.75,64.75a45.53,45.53,0,1,0,79.11,12l17.66-9.89a33.38,33.38,0,1,0-3.77-5.89l-16.72,9.42a45.37,45.37,0,0,0-71.34-10.83L577.5,257.1a47.41,47.41,0,0,0,13-16l48.74,8a32.65,32.65,0,0,0,64.28-10.84,32.7,32.7,0,0,0-65.22,3.3L593,234A45.57,45.57,0,1,0,519.11,255l-50.39,49.21a45.6,45.6,0,0,0-30.61-15.54V254.28a32.89,32.89,0,0,0,29.2-34.38,32.4,32.4,0,0,0-32.49-30.85,32.83,32.83,0,0,0-3.54,65.46v34.14a45.52,45.52,0,0,0-36,68.05L316.14,393a45,45,0,0,0-12.95-17.42L334,320a32.63,32.63,0,1,0-6.83-2.59l-29.9,54.15a45.56,45.56,0,1,0-9.19,82.65l35.56,69.46A45,45,0,0,0,306.26,551l-25.91-7.53a30.89,30.89,0,0,0,.95-8,32.81,32.81,0,1,0-3.54,14.84l27.55,8v2.12a44.73,44.73,0,0,0,21,38.15l-17.66,23.07a32.06,32.06,0,1,0,4.94,5.18l19.08-25A44.2,44.2,0,0,0,351,605.58a11.29,11.29,0,0,0,2.83-.24L368,685.16a46.13,46.13,0,0,0-32.73,42.39,45.53,45.53,0,0,0,81.7,28.72l65.93,29.44a38.72,38.72,0,0,0-.94,7.29,32.91,32.91,0,1,0,3.29-14.12l-64.28-28.73a41.9,41.9,0,0,0,5.18-16.72L509.93,713a45.29,45.29,0,0,0,68,13.89l31.32,27.08a32.91,32.91,0,0,0,58.16,30.61,32.93,32.93,0,0,0-54.39-37L583.15,721.9A46.27,46.27,0,0,0,593,705.18L717.6,711.3a32.81,32.81,0,0,0,33,32.49,32.46,32.46,0,0,0,32.5-32.73c0-17.65-14.6-32.25-32.73-32.25Z"></path>
  </g>
</svg>
